{"title":"Epic(2013) 1080p[Dual Audio][ENG(5.1)-HINDI(5.1)]~{PHDR}~","uid":8910582,"size":3225180664,"categoryP":"video","categoryS":"hd___movies","magnet":"?xt=urn:btih:40f903ed05c867d62df85cdff1a0757f99ad5fe4&amp;dn=Epic%282013%29+1080p%5BDual+Audio%5D%5BENG%285.1%29-HINDI%285.1%29%5D%7E%7BPHDR%7D%7E&amp;tr=udp%3A%2F%2Ftracker.openbittorrent.com%3A80&amp;tr=udp%3A%2F%2Fopen.demonii.com%3A1337&amp;tr=udp%3A%2F%2Ftracker.coppersurfer.tk%3A6969&amp;tr=udp%3A%2F%2Fexodus.desync.com%3A6969","seeders":6,"leechers":0,"uploader":"manucs2004","files":-1,"time":1379010107,"description":"Epic(2013) 1080p[Dual Audio][ENG(5.1)-HINDI(5.1)]~{PHDR}~\n\nEpic-DVD-407x500.jpg\n\n\n\ncooltext522897865.png\ncooltext636522109.png\n\n25ic0hd1.png\n\n\nStoryline:\nYoung Mary Katherine (M.K.) returns to her eccentric scientist father's home,\nbut his all-consuming quest to discover a tiny civilization in the neighboring forest drives them apart.\nHowever, M.K. soon finds herself shrunken down by Queen Tara of that forest, mortally wounded by the putrefying Boggans,\nand charged to deliver a pod bearing the new Queen to safety.\nTogether with a veteran Leafman warrior, two goofy mollusks and a young maverick, M.K. agrees to help.\nAs the villainous Boggan leader, Mandrake closes in, M.K. and her new friends must draw on\nthe best of themselves together and discover what they have to save their world.\n\nCast:\nBlake Anderson ...Dagda (voice)\nAziz Ansari ...Mub (voice)\nAllison Bills ...Dandelion Jinn (voice)\nJim Conroy ...Race Announcer (voice)\nTodd Cummings ...Fruit Fly (Old) (voice)\nJohn DiMaggio ...Pinecone Jinn (voice)\nTroy Evans ...Thistle Jinn (voice)\nColin Farrell ...Ronin (voice)\nJason Fricchione ...Bufo's Goon (voice)\nJudah Friedlander ...Taxi Driver (voice)\n\n\nzvbzx21.png\n\n\nGeneral\n\nComplete name : Epic(2013) 1080p[Dual Audio][ENG(5.1)-HINDI(5.1)]~{PHDR}~\nFormat : Matroska\nFormat version : Version 2\nFile size : 2.97 GiB\nDuration : 1h 42mn\nOverall bit rate : 4 146 Kbps\nMovie name : Epic(2013)1080p[Dual Audio][ENG(5.1)-HINDI(5.1)]~{PHDR}~\n\n\nVideo\nID : 1\nFormat : AVC\nFormat/Info : Advanced Video Codec\nFormat profile : &lt;a class=&quot;__cf_email__&quot; href=&quot;/cdn-cgi/l/email-protection&quot; data-cfemail=&quot;521a3b353a121e667c63&quot;&gt;[email&amp;#160;protected]&lt;/a&gt;&lt;script cf-hash='f9e31' type=&quot;text/javascript&quot;&gt;\n/* &lt;![CDATA[ */!function(){try{var t=&quot;currentScript&quot;in document?document.currentScript:function(){for(var t=document.getElementsByTagName(&quot;script&quot;),e=t.length;e--;)if(t[e].getAttribute(&quot;cf-hash&quot;))return t[e]}();if(t&amp;&amp;t.previousSibling){var e,r,n,i,c=t.previousSibling,a=c.getAttribute(&quot;data-cfemail&quot;);if(a){for(e=&quot;&quot;,r=parseInt(a.substr(0,2),16),n=2;a.length-n;n+=2)i=parseInt(a.substr(n,2),16)^r,e+=String.fromCharCode(i);e=document.createTextNode(e),c.parentNode.replaceChild(e,c)}}}catch(u){}}();/* ]]&gt; */&lt;/script&gt;\nFormat settings, CABAC : Yes\nFormat settings, ReFrames : 5 frames\nMuxing mode : Header stripping\nCodec ID : V_MPEG4/ISO/AVC\nDuration : 1h 42mn\nBit rate : 3 250 Kbps\nWidth : 1 920 pixels\nHeight : 800 pixels\nDisplay aspect ratio : 2.40:1\nFrame rate mode : Constant\nFrame rate : 23.976 fps\nColor space : YUV\nChroma subsampling : 4:2:0\nBit depth : 8 bits\nScan type : Progressive\nBits/(Pixel*Frame) : 0.088\nStream size : 2.27 GiB (76%)\nDefault : Yes\nForced : No\n\nAudio #1\nID : 2\nFormat : AC-3\nFormat/Info : Audio Coding 3\nMode extension : CM (complete main)\nFormat settings, Endianness : Big\nMuxing mode : Header stripping\nCodec ID : A_AC3\nDuration : 1h 42mn\nBit rate mode : Constant\nBit rate : 448 Kbps\nChannel(s) : 6 channels\nChannel positions : Front: L C R, Side: L R, LFE\nSampling rate : 48.0 KHz\nBit depth : 16 bits\nCompression mode : Lossy\nStream size : 328 MiB (11%)\nTitle : Bluray~{PHDR}~\nLanguage : Hindi\nDefault : Yes\nForced : No\n\nAudio #2\nID : 3\nFormat : AC-3\nFormat/Info : Audio Coding 3\nMode extension : CM (complete main)\nFormat settings, Endianness : Big\nMuxing mode : Header stripping\nCodec ID : A_AC3\nDuration : 1h 42mn\nBit rate mode : Constant\nBit rate : 448 Kbps\nChannel(s) : 6 channels\nChannel positions : Front: L C R, Side: L R, LFE\nSampling rate : 48.0 KHz\nBit depth : 16 bits\nCompression mode : Lossy\nStream size : 328 MiB (11%)\nLanguage : English\nDefault : No\nForced : No\n\n\n\nogtw21.gif\n\n\na49427274162533.jpg c964d4274162538.jpg 3e3c51274162544.jpg 56bb72274162558.jpg a88c02274162567.jpg ed13d0274162576.jpg 94e6da274162581.jpg f8062a274162587.jpg\n\n\nNOTE :\n\n1. SEEDING FROM HIGH SPEED SERVER, ENJOY MAX DOWNLOAD SPEED ;)\n2. HINDI AUDIO FROM OWN BLURAY\n3. ENjOY THe PERFECTION\n\n\nCLICK ON LIKE BUTTON TO CONNECT WITH MY PAGE ON FACEBOOK SO U CAN GET ALL THE LATEST STUFF, UPCOMING ETC ON IT\n\nlikej.png\n","torrent":{"xt":"urn:btih:40f903ed05c867d62df85cdff1a0757f99ad5fe4","amp;dn":"Epic%282013%29+1080p%5BDual+Audio%5D%5BENG%285.1%29-HINDI%285.1%29%5D%7E%7BPHDR%7D%7E","amp;tr":["udp%3A%2F%2Ftracker.openbittorrent.com%3A80","udp%3A%2F%2Fopen.demonii.com%3A1337","udp%3A%2F%2Ftracker.coppersurfer.tk%3A6969","udp%3A%2F%2Fexodus.desync.com%3A6969"],"infoHash":"40f903ed05c867d62df85cdff1a0757f99ad5fe4","infoHashBuffer":{"type":"Buffer","data":[64,249,3,237,5,200,103,214,45,248,92,223,241,160,117,127,153,173,95,228]},"announce":[],"urlList":[]}}